<svg height="846" viewBox="0 0 3360 846" width="3360" xmlns="http://www.w3.org/2000/svg"><g fill="none"><path d="m245.586001 122.023912c-5.9-1.1-120.9-30.9999995-145.6999997 90.6l-99.69999995 512.9c-1.1 5.8 2.8 11.9 8.5 12.6 5.69999995.6 120.19999965 30 145.69999965-90.6 0 0 25.3-128.8 33.1-170.5s-29.5-48.9-29.5-53.9 40.2-5 50.3-53.2 45.7-235.2 45.7-235.2c1.2-5.9-2.5-11.5-8.4-12.7zm285.2-117.99999952c-5.9-1.1-120.9-30.99999998-145.7 90.60000002 0 0-46.9 237.2999995-53.5 274.9999995-6.6 37.8 29.7 48.4 29.7 52.7s-39.9 5.7-50.5 54.2-68.4 351.9-68.4 351.9c-1.1 5.8 2.8 11.9 8.5 12.6 5.7.6 120.2 30 145.7-90.6 0 0 46.3-235.5 53.4-274.7s-29.5-50.1-29.5-53.9 40.9-3.4 50.2-52.6 68.6-352.5999995 68.6-352.5999995c1.1-5.8-2.6-11.40000002-8.5-12.60000002zm241.7 103.99999952c-5.9-1.1-120.9-30.9999995-145.7 90.6 0 0-25.6 132.2-33.1 170.5s29.7 48.8 29.7 53.2-40.6 6.1-50.6 54.4-45.6 234.8-45.6 234.8c-1.1 5.8 2.8 11.9 8.5 12.6 5.7.6 120.2 30 145.7-90.6l99.7-512.9c1-5.8-2.7-11.4-8.6-12.6z" fill="#0078ff" transform="translate(.313999 .476088)"/><g fill="#001c44" transform="translate(1084.5 37.5)"><path d="m200.6 172.2v120.9h-47.7v-114.6c0-37.5-17.9-55.7-48.4-55.7-33.9 0-56.8 21.3-56.8 63.6v106.7h-47.7v-293.1h47.7v106.7c15.6-17.4 39.7-26.9 67.9-26.9 48.7 0 85 28.8 85 92.4z"/><path d="m271.5 187.6c0-63.2 45.8-107.9 108.3-107.9 63.3 0 108.7 44.6 108.7 107.9s-45.4 108.3-108.7 108.3c-62.5 0-108.3-45.1-108.3-108.3zm168.9 0c0-40.3-25.9-66-60.6-66-34.3 0-60.3 25.7-60.3 66s25.9 66 60.3 66c34.7 0 60.6-25.7 60.6-66z"/><path d="m900 172.2v120.9h-47.7v-114.6c0-37.5-16.8-55.7-45.8-55.7-31.3 0-53 21.3-53 63.2v107.1h-47.7v-114.6c0-37.5-16.8-55.7-45.8-55.7-31.7 0-53 21.3-53 63.2v107.1h-47.7v-211h45.4v26.9c15.3-19 38.9-29.2 66.7-29.2 29.7 0 54.5 11.5 68.7 35.2 16.4-21.7 43.9-35.2 76.3-35.2 49.3 0 83.6 28.8 83.6 92.4z"/><path d="m1178.8 203.4h-159.8c5.7 30.8 30.5 50.6 66 50.6 22.9 0 40.8-7.5 55.3-22.9l25.6 30.4c-18.3 22.5-46.9 34.4-82 34.4-68.3 0-112.5-45.4-112.5-108.3 0-62.8 44.6-107.9 105.3-107.9 59.5 0 103 43.1 103 109-.1 4.1-.5 10-.9 14.7zm-160.2-32.8h115.6c-3.8-30.4-26.3-51.4-57.6-51.4-30.9.1-53.4 20.6-58 51.4z"/><path d="m1466.8 187.6c0 65.6-43.9 108.3-103.4 108.3-25.9 0-48.8-9.1-65.2-28.4v102.3h-47.7v-287.7h45.4v27.7c16-20.1 39.7-30 67.5-30 59.5 0 103.4 42.6 103.4 107.8zm-48.5 0c0-40.3-25.9-66-60.3-66s-60.6 25.7-60.6 66 26.3 66 60.6 66 60.3-25.7 60.3-66z"/><path d="m1705.1 169.4v123.7h-45v-25.7c-11.4 18.2-33.6 28.4-64.1 28.4-46.5 0-75.9-26.5-75.9-63.2 0-35.2 22.9-62.8 84.7-62.8h52.6v-3.2c0-28.8-16.8-45.8-50.7-45.8-22.9 0-46.5 7.9-61.8 20.9l-18.7-36c21.7-17.4 53.4-26.1 86.2-26.1 58.8.2 92.7 29 92.7 89.8zm-47.6 57.7v-24.5h-49.2c-32.4 0-41.2 12.6-41.2 28.1 0 17.8 14.5 29.2 38.9 29.2 23.2 0 43.5-11 51.5-32.8z"/><path d="m1995.4 82.1v179c0 76.6-38.5 111.4-109.8 111.4-38.1 0-75.9-10.3-99.2-30l21.4-37.1c17.9 15.4 46.9 25.3 75.1 25.3 45 0 64.8-21.3 64.8-64v-11.1c-16.8 19-40.8 28.1-68.3 28.1-58.4 0-103-41.1-103-102.3s44.6-101.5 103-101.5c28.6 0 53.8 9.5 70.6 30.4v-28.1h45.4zm-46.9 99.2c0-35.6-25.9-59.7-61.8-59.7-36.2 0-62.2 24.1-62.2 59.7 0 36 25.9 60.4 62.2 60.4 35.8 0 61.8-24.5 61.8-60.4z"/><path d="m2273.8 203.4h-159.8c5.7 30.8 30.5 50.6 66 50.6 22.9 0 40.8-7.5 55.3-22.9l25.6 30.4c-18.3 22.5-46.9 34.4-82 34.4-68.3 0-112.5-45.4-112.5-108.3 0-62.8 44.6-107.9 105.3-107.9 59.5 0 103 43.1 103 109-.1 4.1-.5 10-.9 14.7zm-160.2-32.8h115.6c-3.8-30.4-26.3-51.4-57.6-51.4-30.9.1-53.4 20.6-58 51.4z"/><path d="m200.6 567.3v120.9h-47.7v-114.6c0-37.5-17.9-55.7-48.4-55.7-33.9 0-56.8 21.3-56.8 63.6v106.7h-47.7v-293.2h47.7v106.7c15.6-17.4 39.7-26.9 67.9-26.9 48.7 0 85 28.9 85 92.5z"/><path d="m483.2 598.5h-159.8c5.7 30.8 30.5 50.6 66 50.6 22.9 0 40.8-7.5 55.3-22.9l25.6 30.4c-18.3 22.5-46.9 34.4-82 34.4-68.3 0-112.5-45.4-112.5-108.3 0-62.8 44.6-107.9 105.3-107.9 59.5 0 103 43.1 103 109-.2 4-.6 10-.9 14.7zm-160.2-32.8h115.5c-3.8-30.4-26.3-51.4-57.6-51.4-30.8.1-53.3 20.6-57.9 51.4z"/><path d="m559.1 395h47.7v293.1h-47.7z"/><path d="m899.6 395v293.1h-45.8v-27.3c-16 20.1-39.7 30-67.5 30-59.1 0-103-42.7-103-108.3s43.9-107.9 103-107.9c26.3 0 49.6 9.1 65.6 28.4v-108zm-46.9 187.7c0-40.3-26.3-66-60.6-66s-60.6 25.7-60.6 66 26.3 66 60.6 66 60.6-25.7 60.6-66z"/><path d="m1178.4 598.5h-159.8c5.7 30.8 30.5 50.6 66 50.6 22.9 0 40.8-7.5 55.3-22.9l25.6 30.4c-18.3 22.5-46.9 34.4-82 34.4-68.3 0-112.5-45.4-112.5-108.3 0-62.8 44.6-107.9 105.3-107.9 59.5 0 103 43.1 103 109-.1 4-.5 10-.9 14.7zm-160.1-32.8h115.6c-3.8-30.4-26.3-51.4-57.6-51.4-31 .1-53.5 20.6-58 51.4z"/><path d="m1450.8 567.3v120.9h-47.7v-114.6c0-37.5-17.9-55.7-48.4-55.7-33.9 0-56.8 21.3-56.8 63.6v106.7h-47.7v-211h45.4v27.3c15.6-19.4 40.4-29.600259 70.2-29.600259 48.7-.099741 85 28.800259 85 92.400259z"/></g></g></svg>